<svg xmlns="http://www.w3.org/2000/svg" xmlns:xlink="http://www.w3.org/1999/xlink" width="500" zoomAndPan="magnify" viewBox="0 0 375 374.999991" height="500" preserveAspectRatio="xMidYMid meet" version="1.0"><defs><g/><clipPath id="c8973229db"><path d="M 126.78125 117 L 248.230469 117 L 248.230469 206.925781 L 126.78125 206.925781 Z M 126.78125 117 " clip-rule="nonzero"/></clipPath><clipPath id="bfe9907273"><path d="M 138 103.425781 L 237 103.425781 L 237 178 L 138 178 Z M 138 103.425781 " clip-rule="nonzero"/></clipPath></defs><g clip-path="url(#c8973229db)"><path fill="#000000" d="M 248.230469 119.277344 L 248.230469 191.074219 L 200.746094 191.074219 L 187.457031 206.867188 L 174.1875 191.074219 L 126.730469 191.074219 L 126.730469 117.578125 L 141.625 117.578125 L 141.625 176.203125 L 181.136719 176.203125 L 187.457031 183.710938 L 193.824219 176.203125 L 233.335938 176.203125 L 233.335938 117.578125 L 248.230469 117.578125 Z M 244.804688 187.671875 L 244.804688 120.980469 L 236.734375 120.980469 L 236.734375 179.605469 L 195.378906 179.605469 L 187.457031 189.058594 L 179.535156 179.605469 L 138.175781 179.605469 L 138.175781 120.980469 L 130.15625 120.980469 L 130.15625 187.648438 L 175.816406 187.648438 L 187.480469 201.519531 L 199.167969 187.648438 L 244.804688 187.648438 Z M 244.804688 187.671875 " fill-opacity="1" fill-rule="nonzero"/></g><g clip-path="url(#bfe9907273)"><path fill="#000000" d="M 138.175781 177.90625 L 138.175781 103.484375 C 152.511719 103.484375 166.824219 103.484375 181.136719 103.484375 L 187.457031 111.042969 L 193.824219 103.484375 C 208.136719 103.484375 222.449219 103.484375 236.761719 103.484375 L 236.761719 177.90625 L 233.335938 177.90625 L 233.335938 106.9375 L 195.378906 106.9375 L 187.457031 116.339844 L 179.535156 106.9375 L 141.625 106.9375 L 141.625 177.90625 Z M 138.175781 177.90625 " fill-opacity="1" fill-rule="nonzero"/></g><path fill="#000000" d="M 154.722656 176.761719 L 187.457031 138.933594 L 220.238281 176.761719 L 217.636719 179.023438 L 187.457031 144.15625 L 157.324219 179.023438 Z M 154.722656 176.761719 " fill-opacity="1" fill-rule="nonzero"/><path fill="#000000" d="M 138.613281 160.21875 L 157.03125 138.933594 L 173.554688 158.03125 L 170.980469 160.242188 L 157.03125 144.15625 L 141.1875 162.476562 Z M 138.613281 160.21875 " fill-opacity="1" fill-rule="nonzero"/><path fill="#000000" d="M 232.679688 162.476562 L 216.859375 144.15625 L 202.910156 160.242188 L 200.308594 158.03125 L 216.859375 138.933594 L 235.253906 160.21875 Z M 232.679688 162.476562 " fill-opacity="1" fill-rule="nonzero"/><path fill="#000000" d="M 181.867188 160.167969 L 186.554688 160.167969 L 186.554688 164.859375 L 181.867188 164.859375 Z M 188.402344 160.167969 L 193.09375 160.167969 L 193.09375 164.859375 L 188.402344 164.859375 Z M 193.09375 166.703125 L 193.09375 171.394531 L 188.402344 171.394531 L 188.402344 166.703125 Z M 186.554688 171.394531 L 181.867188 171.394531 L 181.867188 166.703125 L 186.554688 166.703125 Z M 186.554688 171.394531 " fill-opacity="1" fill-rule="nonzero"/><path fill="#000000" d="M 185.753906 120.273438 L 189.179688 120.273438 L 189.179688 141.558594 L 185.753906 141.558594 Z M 185.753906 120.273438 " fill-opacity="1" fill-rule="nonzero"/><path fill="#000000" d="M 179.167969 125.0625 L 195.742188 125.0625 L 195.742188 128.460938 L 179.167969 128.460938 Z M 179.167969 125.0625 " fill-opacity="1" fill-rule="nonzero"/><g fill="#202020" fill-opacity="1"><g transform="translate(111.491335, 246.471413)"><g><path d="M 28.726562 -4.445312 L 28.445312 -4.648438 C 26.722656 -2.523438 23.757812 -1.601562 20.875 -1.601562 C 13.222656 -1.601562 8.613281 -8.695312 8.613281 -16.789062 C 8.613281 -24.28125 12.019531 -27.765625 16.628906 -27.765625 C 22.757812 -27.765625 25.039062 -21.914062 22.996094 -16.1875 L 23.117188 -16.144531 L 29.328125 -24.398438 C 27.484375 -26.644531 24.238281 -28.605469 19.03125 -28.605469 C 10.777344 -28.605469 1.804688 -23.71875 1.804688 -13.902344 C 1.804688 -5.648438 8.375 0.5625 17.707031 0.5625 C 23.476562 0.5625 27.003906 -1.722656 28.726562 -4.445312 Z M 28.726562 -4.445312 "/></g></g></g><g fill="#202020" fill-opacity="1"><g transform="translate(142.413658, 246.471413)"><g><path d="M 17.707031 0 L 25.402344 0 C 24.199219 -0.800781 23.839844 -1.5625 23.839844 -3.726562 L 23.839844 -12.378906 C 23.839844 -18.429688 20.273438 -19.671875 17.789062 -19.671875 C 14.261719 -19.671875 11.097656 -17.46875 9.296875 -16.1875 L 9.296875 -29.847656 L 9.496094 -31.773438 L -0.402344 -27.164062 L -0.402344 -26.921875 C 2.203125 -27.683594 3.40625 -27.886719 3.40625 -26.28125 L 3.40625 -2.484375 L 3.046875 0 L 11.578125 0 L 11.578125 -0.160156 C 9.574219 -0.601562 9.296875 -1.722656 9.296875 -3.886719 L 9.296875 -15.226562 C 10.699219 -16.265625 12.582031 -17.75 14.945312 -17.75 C 16.707031 -17.75 17.949219 -16.746094 17.949219 -12.300781 L 17.949219 -2.765625 Z M 17.707031 0 "/></g></g></g><g fill="#202020" fill-opacity="1"><g transform="translate(169.410623, 246.471413)"><g><path d="M 23.199219 -1.28125 L 23.199219 -16.667969 L 23.4375 -19.429688 L 15.144531 -19.429688 L 15.144531 -19.351562 C 16.949219 -18.550781 17.308594 -17.789062 17.308594 -15.625 L 17.308594 -4.046875 C 15.90625 -2.882812 14.023438 -1.683594 11.578125 -1.683594 C 9.894531 -1.683594 8.652344 -2.644531 8.652344 -7.089844 L 8.652344 -16.667969 L 8.894531 -19.429688 L 0.601562 -19.429688 L 0.601562 -19.351562 C 2.402344 -18.550781 2.765625 -17.789062 2.765625 -15.625 L 2.765625 -7.011719 C 2.765625 -0.960938 6.332031 0.28125 8.734375 0.28125 C 12.339844 0.28125 15.464844 -1.644531 17.308594 -3.085938 L 17.308594 0.199219 L 25.441406 -0.402344 L 25.441406 -0.5625 C 24.800781 -0.640625 23.757812 -0.921875 23.199219 -1.28125 Z M 23.199219 -1.28125 "/></g></g></g><g fill="#202020" fill-opacity="1"><g transform="translate(195.846816, 246.471413)"><g><path d="M 15.226562 -19.632812 C 12.300781 -19.632812 10.175781 -17.949219 9.253906 -15.386719 L 8.734375 -15.386719 L 8.734375 -16.667969 L 8.933594 -19.632812 L 0.402344 -19.03125 L 0.402344 -18.871094 C 1.242188 -18.789062 2.285156 -18.511719 2.84375 -18.148438 L 2.84375 -2.765625 L 2.644531 0 L 10.296875 0 C 9.09375 -0.800781 8.734375 -1.5625 8.734375 -3.726562 L 8.734375 -11.457031 C 9.054688 -14.183594 9.894531 -16.507812 11.578125 -16.507812 C 13.179688 -16.507812 13.824219 -14.144531 12.980469 -11.898438 L 13.140625 -11.898438 L 17.46875 -19.152344 C 16.707031 -19.511719 16.066406 -19.632812 15.226562 -19.632812 Z M 15.226562 -19.632812 "/></g></g></g><g fill="#202020" fill-opacity="1"><g transform="translate(214.312132, 246.471413)"><g><path d="M 12.582031 0.28125 C 16.828125 0.28125 19.550781 -1.441406 20.753906 -3.605469 L 20.554688 -3.765625 C 19.3125 -2.242188 17.269531 -1.804688 15.785156 -1.804688 C 10.898438 -1.804688 7.574219 -6.289062 7.574219 -12.019531 C 7.574219 -16.988281 10.136719 -19.109375 12.539062 -19.109375 C 14.902344 -19.03125 18.429688 -16.789062 16.546875 -10.738281 L 16.628906 -10.738281 L 20.792969 -16.988281 C 19.550781 -18.390625 17.1875 -19.671875 13.5 -19.671875 C 7.089844 -19.671875 1.601562 -15.945312 1.601562 -9.535156 C 1.601562 -3.964844 5.769531 0.28125 12.582031 0.28125 Z M 12.582031 0.28125 "/></g></g></g><g fill="#202020" fill-opacity="1"><g transform="translate(236.903077, 246.471413)"><g><path d="M 17.707031 0 L 25.402344 0 C 24.199219 -0.800781 23.839844 -1.5625 23.839844 -3.726562 L 23.839844 -12.378906 C 23.839844 -18.429688 20.273438 -19.671875 17.789062 -19.671875 C 14.261719 -19.671875 11.097656 -17.46875 9.296875 -16.1875 L 9.296875 -29.847656 L 9.496094 -31.773438 L -0.402344 -27.164062 L -0.402344 -26.921875 C 2.203125 -27.683594 3.40625 -27.886719 3.40625 -26.28125 L 3.40625 -2.484375 L 3.046875 0 L 11.578125 0 L 11.578125 -0.160156 C 9.574219 -0.601562 9.296875 -1.722656 9.296875 -3.886719 L 9.296875 -15.226562 C 10.699219 -16.265625 12.582031 -17.75 14.945312 -17.75 C 16.707031 -17.75 17.949219 -16.746094 17.949219 -12.300781 L 17.949219 -2.765625 Z M 17.707031 0 "/></g></g></g><g fill="#202020" fill-opacity="1"><g transform="translate(131.424657, 267.988194)"><g><path d="M 2.6875 0 L 1.171875 0 L 1.171875 -8.96875 L 2.6875 -8.96875 Z M 2.6875 0 "/></g></g></g><g fill="#202020" fill-opacity="1"><g transform="translate(137.009745, 267.988194)"><g><path d="M 2.6875 -1.375 L 6.578125 -1.375 L 6.578125 0 L 1.171875 0 L 1.171875 -8.96875 L 2.6875 -8.96875 Z M 2.6875 -1.375 "/></g></g></g><g fill="#202020" fill-opacity="1"><g transform="translate(145.566428, 267.988194)"><g><path d="M 2.6875 -1.375 L 6.578125 -1.375 L 6.578125 0 L 1.171875 0 L 1.171875 -8.96875 L 2.6875 -8.96875 Z M 2.6875 -1.375 "/></g></g></g><g fill="#202020" fill-opacity="1"><g transform="translate(154.123111, 267.988194)"><g><path d="M 8.796875 -8.96875 L 8.796875 -3.71875 C 8.796875 -2.539062 8.453125 -1.613281 7.765625 -0.9375 C 7.078125 -0.269531 6.125 0.0625 4.90625 0.0625 C 3.695312 0.0625 2.742188 -0.269531 2.046875 -0.9375 C 1.347656 -1.613281 1 -2.539062 1 -3.71875 L 1 -8.96875 L 2.515625 -8.96875 L 2.515625 -3.71875 C 2.515625 -2.96875 2.726562 -2.375 3.15625 -1.9375 C 3.59375 -1.507812 4.179688 -1.296875 4.921875 -1.296875 C 5.648438 -1.296875 6.226562 -1.507812 6.65625 -1.9375 C 7.082031 -2.363281 7.296875 -2.957031 7.296875 -3.71875 L 7.296875 -8.96875 Z M 8.796875 -8.96875 "/></g></g></g><g fill="#202020" fill-opacity="1"><g transform="translate(165.625778, 267.988194)"><g><path d="M 4.125 -9.03125 C 5.289062 -9.03125 6.335938 -8.722656 7.265625 -8.109375 L 6.640625 -6.78125 C 5.722656 -7.332031 4.847656 -7.609375 4.015625 -7.609375 C 3.554688 -7.609375 3.195312 -7.523438 2.9375 -7.359375 C 2.675781 -7.203125 2.546875 -6.972656 2.546875 -6.671875 C 2.546875 -6.378906 2.664062 -6.125 2.90625 -5.90625 C 3.144531 -5.695312 3.441406 -5.539062 3.796875 -5.4375 C 4.160156 -5.34375 4.550781 -5.222656 4.96875 -5.078125 C 5.382812 -4.929688 5.769531 -4.773438 6.125 -4.609375 C 6.488281 -4.441406 6.785156 -4.179688 7.015625 -3.828125 C 7.253906 -3.472656 7.375 -3.039062 7.375 -2.53125 C 7.375 -1.75 7.0625 -1.125 6.4375 -0.65625 C 5.8125 -0.1875 5 0.046875 4 0.046875 C 3.3125 0.046875 2.644531 -0.078125 2 -0.328125 C 1.363281 -0.585938 0.804688 -0.9375 0.328125 -1.375 L 0.984375 -2.671875 C 1.441406 -2.253906 1.941406 -1.929688 2.484375 -1.703125 C 3.023438 -1.484375 3.535156 -1.375 4.015625 -1.375 C 4.546875 -1.375 4.957031 -1.46875 5.25 -1.65625 C 5.550781 -1.851562 5.703125 -2.117188 5.703125 -2.453125 C 5.703125 -2.765625 5.582031 -3.023438 5.34375 -3.234375 C 5.101562 -3.441406 4.800781 -3.59375 4.4375 -3.6875 C 4.082031 -3.789062 3.695312 -3.910156 3.28125 -4.046875 C 2.863281 -4.191406 2.472656 -4.34375 2.109375 -4.5 C 1.753906 -4.65625 1.457031 -4.910156 1.21875 -5.265625 C 0.976562 -5.617188 0.859375 -6.039062 0.859375 -6.53125 C 0.859375 -7.289062 1.15625 -7.894531 1.75 -8.34375 C 2.351562 -8.800781 3.144531 -9.03125 4.125 -9.03125 Z M 4.125 -9.03125 "/></g></g></g><g fill="#202020" fill-opacity="1"><g transform="translate(175.309625, 267.988194)"><g><path d="M 7.296875 -7.609375 L 4.453125 -7.609375 L 4.453125 0 L 2.953125 0 L 2.953125 -7.609375 L 0.109375 -7.609375 L 0.109375 -8.96875 L 7.296875 -8.96875 Z M 7.296875 -7.609375 "/></g></g></g><g fill="#202020" fill-opacity="1"><g transform="translate(184.442699, 267.988194)"><g><path d="M 6.875 0 L 5.234375 -2.71875 C 5.140625 -2.707031 5 -2.703125 4.8125 -2.703125 L 2.6875 -2.703125 L 2.6875 0 L 1.171875 0 L 1.171875 -8.96875 L 4.8125 -8.96875 C 5.957031 -8.96875 6.847656 -8.703125 7.484375 -8.171875 C 8.117188 -7.640625 8.4375 -6.882812 8.4375 -5.90625 C 8.4375 -5.1875 8.273438 -4.578125 7.953125 -4.078125 C 7.628906 -3.585938 7.171875 -3.226562 6.578125 -3 L 8.578125 0 Z M 2.6875 -4.0625 L 4.8125 -4.0625 C 6.269531 -4.0625 7 -4.664062 7 -5.875 C 7 -7.03125 6.269531 -7.609375 4.8125 -7.609375 L 2.6875 -7.609375 Z M 2.6875 -4.0625 "/></g></g></g><g fill="#202020" fill-opacity="1"><g transform="translate(195.420209, 267.988194)"><g><path d="M 6.96875 -2.03125 L 2.453125 -2.03125 L 1.59375 0 L 0.015625 0 L 3.96875 -8.96875 L 5.515625 -8.96875 L 9.4375 0 L 7.828125 0 Z M 6.390625 -3.375 L 4.703125 -7.359375 L 3.015625 -3.375 Z M 6.390625 -3.375 "/></g></g></g><g fill="#202020" fill-opacity="1"><g transform="translate(206.589854, 267.988194)"><g><path d="M 7.296875 -7.609375 L 4.453125 -7.609375 L 4.453125 0 L 2.953125 0 L 2.953125 -7.609375 L 0.109375 -7.609375 L 0.109375 -8.96875 L 7.296875 -8.96875 Z M 7.296875 -7.609375 "/></g></g></g><g fill="#202020" fill-opacity="1"><g transform="translate(215.722931, 267.988194)"><g><path d="M 2.6875 0 L 1.171875 0 L 1.171875 -8.96875 L 2.6875 -8.96875 Z M 2.6875 0 "/></g></g></g><g fill="#202020" fill-opacity="1"><g transform="translate(221.308019, 267.988194)"><g><path d="M 1.796875 -7.703125 C 2.710938 -8.566406 3.84375 -9 5.1875 -9 C 6.53125 -9 7.65625 -8.566406 8.5625 -7.703125 C 9.476562 -6.835938 9.9375 -5.765625 9.9375 -4.484375 C 9.9375 -3.203125 9.476562 -2.125 8.5625 -1.25 C 7.65625 -0.375 6.53125 0.0625 5.1875 0.0625 C 3.84375 0.0625 2.710938 -0.375 1.796875 -1.25 C 0.890625 -2.125 0.4375 -3.203125 0.4375 -4.484375 C 0.4375 -5.765625 0.890625 -6.835938 1.796875 -7.703125 Z M 5.203125 -7.65625 C 4.316406 -7.65625 3.554688 -7.347656 2.921875 -6.734375 C 2.285156 -6.117188 1.96875 -5.367188 1.96875 -4.484375 C 1.96875 -3.597656 2.285156 -2.84375 2.921875 -2.21875 C 3.554688 -1.601562 4.3125 -1.296875 5.1875 -1.296875 C 6.070312 -1.296875 6.828125 -1.601562 7.453125 -2.21875 C 8.078125 -2.84375 8.390625 -3.597656 8.390625 -4.484375 C 8.390625 -5.367188 8.078125 -6.117188 7.453125 -6.734375 C 6.828125 -7.347656 6.078125 -7.65625 5.203125 -7.65625 Z M 5.203125 -7.65625 "/></g></g></g><g fill="#202020" fill-opacity="1"><g transform="translate(233.399886, 267.988194)"><g><path d="M 8.953125 0 L 7.46875 0 L 2.6875 -6.4375 L 2.6875 0 L 1.171875 0 L 1.171875 -8.96875 L 2.671875 -8.96875 L 7.46875 -2.53125 L 7.46875 -8.96875 L 8.953125 -8.96875 Z M 8.953125 0 "/></g></g></g></svg>